<mxfile host="app.diagrams.net" modified="2022-03-29T14:52:12.309Z" agent="5.0 (X11; Linux x86_64) AppleWebKit/537.36 (KHTML, like Gecko) Chrome/99.0.4844.84 Safari/537.36" etag="0lYFtUkL5rz4d5-dlPt3" version="17.2.4" type="github">
  <diagram id="AlCFMFMvlPKh5fdOvYJY" name="Page-1">
    <mxGraphModel dx="981" dy="524" grid="1" gridSize="10" guides="1" tooltips="1" connect="1" arrows="1" fold="1" page="1" pageScale="1" pageWidth="850" pageHeight="1100" math="0" shadow="0">
      <root>
        <mxCell id="0" />
        <mxCell id="1" parent="0" />
        <mxCell id="Qwr74N7xE_Lkuxg0-fRO-1" value="Tamu" style="shape=umlActor;verticalLabelPosition=bottom;verticalAlign=top;html=1;outlineConnect=0;fontStyle=1" parent="1" vertex="1">
          <mxGeometry x="230" y="255" width="30" height="60" as="geometry" />
        </mxCell>
        <mxCell id="Qwr74N7xE_Lkuxg0-fRO-2" value="Hotel" style="shape=umlActor;verticalLabelPosition=bottom;verticalAlign=top;html=1;outlineConnect=0;fontStyle=1" parent="1" vertex="1">
          <mxGeometry x="600" y="270" width="30" height="60" as="geometry" />
        </mxCell>
        <mxCell id="Qwr74N7xE_Lkuxg0-fRO-4" value="Login" style="ellipse;whiteSpace=wrap;html=1;fontStyle=1" parent="1" vertex="1">
          <mxGeometry x="345" y="330" width="80" height="40" as="geometry" />
        </mxCell>
        <mxCell id="Qwr74N7xE_Lkuxg0-fRO-7" value="Mempublikasi Informasi Kamar" style="ellipse;whiteSpace=wrap;html=1;fontStyle=1" parent="1" vertex="1">
          <mxGeometry x="440" y="220" width="120" height="60" as="geometry" />
        </mxCell>
        <mxCell id="Qwr74N7xE_Lkuxg0-fRO-10" value="" style="endArrow=classic;html=1;rounded=0;dashed=1;" parent="1" source="Qwr74N7xE_Lkuxg0-fRO-13" target="Qwr74N7xE_Lkuxg0-fRO-4" edge="1">
          <mxGeometry width="50" height="50" relative="1" as="geometry">
            <mxPoint x="400" y="350" as="sourcePoint" />
            <mxPoint x="450" y="400" as="targetPoint" />
          </mxGeometry>
        </mxCell>
        <mxCell id="Qwr74N7xE_Lkuxg0-fRO-11" value="&amp;lt;&amp;lt; extends &amp;gt;&amp;gt;" style="edgeLabel;html=1;align=center;verticalAlign=middle;resizable=0;points=[];" parent="Qwr74N7xE_Lkuxg0-fRO-10" vertex="1" connectable="0">
          <mxGeometry x="-0.4536" relative="1" as="geometry">
            <mxPoint y="-6" as="offset" />
          </mxGeometry>
        </mxCell>
        <mxCell id="Qwr74N7xE_Lkuxg0-fRO-13" value="Register" style="ellipse;whiteSpace=wrap;html=1;fontStyle=1" parent="1" vertex="1">
          <mxGeometry x="345" y="420" width="80" height="40" as="geometry" />
        </mxCell>
        <mxCell id="Qwr74N7xE_Lkuxg0-fRO-15" value="" style="endArrow=none;html=1;rounded=0;endFill=0;" parent="1" source="Qwr74N7xE_Lkuxg0-fRO-1" target="Qwr74N7xE_Lkuxg0-fRO-4" edge="1">
          <mxGeometry width="50" height="50" relative="1" as="geometry">
            <mxPoint x="470" y="300" as="sourcePoint" />
            <mxPoint x="520" y="250" as="targetPoint" />
          </mxGeometry>
        </mxCell>
        <mxCell id="Qwr74N7xE_Lkuxg0-fRO-16" value="" style="endArrow=none;html=1;rounded=0;endFill=0;" parent="1" source="Qwr74N7xE_Lkuxg0-fRO-2" target="Qwr74N7xE_Lkuxg0-fRO-7" edge="1">
          <mxGeometry width="50" height="50" relative="1" as="geometry">
            <mxPoint x="290" y="290" as="sourcePoint" />
            <mxPoint x="370" y="290" as="targetPoint" />
          </mxGeometry>
        </mxCell>
        <mxCell id="Qwr74N7xE_Lkuxg0-fRO-17" value="" style="endArrow=none;html=1;rounded=0;endFill=0;" parent="1" source="Qwr74N7xE_Lkuxg0-fRO-2" target="Qwr74N7xE_Lkuxg0-fRO-4" edge="1">
          <mxGeometry width="50" height="50" relative="1" as="geometry">
            <mxPoint x="570" y="262.62521707969245" as="sourcePoint" />
            <mxPoint x="513.8081376329294" y="197.53712304531575" as="targetPoint" />
          </mxGeometry>
        </mxCell>
        <mxCell id="Qwr74N7xE_Lkuxg0-fRO-18" value="Memesan Kamar" style="ellipse;whiteSpace=wrap;html=1;fontStyle=1" parent="1" vertex="1">
          <mxGeometry x="340" y="255" width="90" height="50" as="geometry" />
        </mxCell>
        <mxCell id="Qwr74N7xE_Lkuxg0-fRO-19" value="" style="endArrow=none;html=1;rounded=0;endFill=0;" parent="1" source="Qwr74N7xE_Lkuxg0-fRO-1" target="Qwr74N7xE_Lkuxg0-fRO-18" edge="1">
          <mxGeometry width="50" height="50" relative="1" as="geometry">
            <mxPoint x="290" y="290" as="sourcePoint" />
            <mxPoint x="370" y="290" as="targetPoint" />
          </mxGeometry>
        </mxCell>
        <mxCell id="Qwr74N7xE_Lkuxg0-fRO-20" value="" style="endArrow=classic;html=1;rounded=0;dashed=1;" parent="1" source="Qwr74N7xE_Lkuxg0-fRO-22" target="Qwr74N7xE_Lkuxg0-fRO-18" edge="1">
          <mxGeometry width="50" height="50" relative="1" as="geometry">
            <mxPoint x="370" y="70" as="sourcePoint" />
            <mxPoint x="370" y="20" as="targetPoint" />
          </mxGeometry>
        </mxCell>
        <mxCell id="Qwr74N7xE_Lkuxg0-fRO-21" value="&amp;lt;&amp;lt; extends &amp;gt;&amp;gt;" style="edgeLabel;html=1;align=center;verticalAlign=middle;resizable=0;points=[];" parent="Qwr74N7xE_Lkuxg0-fRO-20" vertex="1" connectable="0">
          <mxGeometry x="-0.4536" relative="1" as="geometry">
            <mxPoint as="offset" />
          </mxGeometry>
        </mxCell>
        <mxCell id="Qwr74N7xE_Lkuxg0-fRO-22" value="Meminta Permintaan Khusus" style="ellipse;whiteSpace=wrap;html=1;fontStyle=1" parent="1" vertex="1">
          <mxGeometry x="315" y="140" width="140" height="70" as="geometry" />
        </mxCell>
        <mxCell id="w_HtO38fSdfE2Lv-nTIq-10" value="" style="group" vertex="1" connectable="0" parent="1">
          <mxGeometry x="230" y="620" width="295" height="450" as="geometry" />
        </mxCell>
        <mxCell id="w_HtO38fSdfE2Lv-nTIq-2" value="" style="shape=umlLifeline;participant=umlActor;perimeter=lifelinePerimeter;whiteSpace=wrap;html=1;container=1;collapsible=0;recursiveResize=0;verticalAlign=top;spacingTop=36;outlineConnect=0;" vertex="1" parent="w_HtO38fSdfE2Lv-nTIq-10">
          <mxGeometry width="20" height="450" as="geometry" />
        </mxCell>
        <mxCell id="w_HtO38fSdfE2Lv-nTIq-3" value=":Sistem" style="shape=umlLifeline;perimeter=lifelinePerimeter;whiteSpace=wrap;html=1;container=1;collapsible=0;recursiveResize=0;outlineConnect=0;" vertex="1" parent="w_HtO38fSdfE2Lv-nTIq-10">
          <mxGeometry x="195" width="100" height="450" as="geometry" />
        </mxCell>
        <mxCell id="w_HtO38fSdfE2Lv-nTIq-6" value="" style="html=1;points=[];perimeter=orthogonalPerimeter;" vertex="1" parent="w_HtO38fSdfE2Lv-nTIq-3">
          <mxGeometry x="45" y="225" width="10" height="59.99999999999999" as="geometry" />
        </mxCell>
        <mxCell id="w_HtO38fSdfE2Lv-nTIq-7" value="Autentikasi" style="edgeStyle=orthogonalEdgeStyle;html=1;align=left;spacingLeft=2;endArrow=block;rounded=0;entryX=1;entryY=0;" edge="1" target="w_HtO38fSdfE2Lv-nTIq-6" parent="w_HtO38fSdfE2Lv-nTIq-3">
          <mxGeometry relative="1" as="geometry">
            <mxPoint x="50" y="194.99999999999997" as="sourcePoint" />
            <Array as="points">
              <mxPoint x="80" y="194.99999999999997" />
            </Array>
          </mxGeometry>
        </mxCell>
        <mxCell id="w_HtO38fSdfE2Lv-nTIq-8" value="" style="html=1;points=[];perimeter=orthogonalPerimeter;" vertex="1" parent="w_HtO38fSdfE2Lv-nTIq-3">
          <mxGeometry x="45" y="75" width="10" height="245" as="geometry" />
        </mxCell>
        <mxCell id="w_HtO38fSdfE2Lv-nTIq-4" value="Menampilkan Menu Login" style="html=1;verticalAlign=bottom;endArrow=block;rounded=0;" edge="1" parent="w_HtO38fSdfE2Lv-nTIq-10" source="w_HtO38fSdfE2Lv-nTIq-3" target="w_HtO38fSdfE2Lv-nTIq-2">
          <mxGeometry width="80" relative="1" as="geometry">
            <mxPoint x="130" y="225" as="sourcePoint" />
            <mxPoint x="210" y="225" as="targetPoint" />
            <Array as="points">
              <mxPoint x="130" y="90" />
            </Array>
          </mxGeometry>
        </mxCell>
        <mxCell id="w_HtO38fSdfE2Lv-nTIq-5" value="Submit Form Login" style="html=1;verticalAlign=bottom;endArrow=block;rounded=0;" edge="1" parent="w_HtO38fSdfE2Lv-nTIq-10" source="w_HtO38fSdfE2Lv-nTIq-2" target="w_HtO38fSdfE2Lv-nTIq-3">
          <mxGeometry width="80" relative="1" as="geometry">
            <mxPoint x="254.5" y="105" as="sourcePoint" />
            <mxPoint x="19.92857142857133" y="105" as="targetPoint" />
            <Array as="points">
              <mxPoint x="140" y="149.99999999999997" />
            </Array>
          </mxGeometry>
        </mxCell>
      </root>
    </mxGraphModel>
  </diagram>
</mxfile>
